# xmcd CD database file
#
# Track frame offsets:
#	150
#	27770
#	50079
#	75684
#	93612
#	100840
#	122465
#	155739
#	183464
#	205710
#	219598
#	251283
#
# Disc length: 3763 seconds
#
# Revision: 0
# Processed by: cddbd v1.5.2PL0 Copyright (c) Steve Scherf et al.
# Submitted via: CDex 1.70beta2
#
DISCID=9d0eb10c
DTITLE=Mark Kelso - Lost Kingdoms
DYEAR=1900
DGENRE=Jazz
TTITLE0=Wouassi Daance
TTITLE1=The Seashores of Hazelbank
TTITLE2=Partricia's Song
TTITLE3=Enuma Elish
TTITLE4=Looking Glass
TTITLE5=Lighter Than Air
TTITLE6=Seventh Son
TTITLE7=Big Dreams
TTITLE8=The Last Dance Of Eriff Estyn
TTITLE9=Orion's Secret
TTITLE10=Lost Kingdoms
TTITLE11=With Love As My Guide
EXTD=
EXTT0=
EXTT1=
EXTT2=
EXTT3=
EXTT4=
EXTT5=
EXTT6=
EXTT7=
EXTT8=
EXTT9=
EXTT10=
EXTT11=
PLAYORDER=
